{"title":"Page 3 (English subtitle track)","uid":6927006,"size":723242888,"categoryP":"video","categoryS":"movies_dvdr","magnet":"?xt=urn:btih:e85d0ce53b71f563663dae75e92eb2f3381a43a4&amp;dn=Page+3+%28English+subtitle+track%29&amp;tr=udp%3A%2F%2Ftracker.openbittorrent.com%3A80&amp;tr=udp%3A%2F%2Fopen.demonii.com%3A1337&amp;tr=udp%3A%2F%2Ftracker.coppersurfer.tk%3A6969&amp;tr=udp%3A%2F%2Fexodus.desync.com%3A6969","seeders":0,"leechers":1,"uploader":"rexdude","files":2,"time":1325542986,"description":"Fun note- Page 3 in Indian newspaper supplements (notoriously 'The Times of India') feature not a picture of a topless model like in British tabloids, but are a bunch of photos/articles about celebrities and their parties.\n\nMadhur Bhandarkar's movie is set in the world of celebrity coverage - the tale of Madhavi Sharma, an idealistic reporter sent to cover the city's happening do's and rub shoulders with the bigshot industrialists, Bollywood stars,fashion designers and others who frequent them. It takes a cynical look at the fake lives led by these people, and she ends up exposing the grime under the glamor.\n\nAnyhow, lame review aside, onward with the links!\n\n &lt;a href=&quot;\nhttp://en.wikipedia.org/wiki/Page_3_%28film%29&quot; rel=&quot;nofollow&quot; target=&quot;_NEW&quot;&gt;\nhttp://en.wikipedia.org/wiki/Page_3_%28film%29&lt;/a&gt;\n\n\nThis movie can be found elsewhere on TPB and other sites too- I have repackaged it as a Matroska (MKV) file with an English subtitle track.\n\nFormat : Matroska\nFile size : 690 MiB\nDuration : 2h 18mn\nOverall bit rate : 698 Kbps\nMovie name : Page 3\nEncoded date : UTC 2011-10-16 13:48:59\nWriting application : mkvmerge v5.0.1 ('Es ist Sommer') built on Oct 9 2011 11:55:43\nWriting library : libebml v1.2.2 + libmatroska v1.3.0\n\nVideo\nID : 1\nFormat : MPEG-4 Visual\nFormat profile : Advanced Simple@L5\nFormat settings, BVOP : Yes\nFormat settings, QPel : No\nFormat settings, GMC : No warppoints\nFormat settings, Matrix : Default (H.263)\nCodec ID : XVID\nCodec ID/Hint : XviD\nDuration : 2h 18mn\nBit rate : 572 Kbps\nWidth : 576 pixels\nHeight : 256 pixels\nDisplay aspect ratio : 2.25:1\nFrame rate : 29.970 fps\nColor space : YUV\nChroma subsampling : 4:2:0\nBit depth : 8 bits\nScan type : Progressive\nCompression mode : Lossy\nBits/(Pixel*Frame) : 0.129\nStream size : 565 MiB (82%)\nWriting library : XviD 1.0.1 (UTC 2004-06-05)\nLanguage : Hindi\n\nAudio\nID : 2\nFormat : MPEG Audio\nFormat version : Version 1\nFormat profile : Layer 3\nMode : Joint stereo\nMode extension : MS Stereo\nMuxing mode : Header stripping\nCodec ID : A_MPEG/L3\nCodec ID/Hint : MP3\nDuration : 2h 18mn\nBit rate mode : Constant\nBit rate : 112 Kbps\nChannel(s) : 2 channels\nSampling rate : 44.1 KHz\nCompression mode : Lossy\nStream size : 111 MiB (16%)\nLanguage : Hindi\n\nText\nID : 3\nFormat : UTF-8\nCodec ID : S_TEXT/UTF8\nCodec ID/Info : UTF-8 Plain Text\nLanguage : English ","torrent":{"xt":"urn:btih:e85d0ce53b71f563663dae75e92eb2f3381a43a4","amp;dn":"Page+3+%28English+subtitle+track%29","amp;tr":["udp%3A%2F%2Ftracker.openbittorrent.com%3A80","udp%3A%2F%2Fopen.demonii.com%3A1337","udp%3A%2F%2Ftracker.coppersurfer.tk%3A6969","udp%3A%2F%2Fexodus.desync.com%3A6969"],"infoHash":"e85d0ce53b71f563663dae75e92eb2f3381a43a4","infoHashBuffer":{"type":"Buffer","data":[232,93,12,229,59,113,245,99,102,61,174,117,233,46,178,243,56,26,67,164]},"announce":[],"urlList":[]}}